<svg width="21" height="21" viewBox="0 0 45 38" fill="none" xmlns="http://www.w3.org/2000/svg">
<path fill-rule="evenodd" clip-rule="evenodd" d="M4.50751 20.6029C5.74126 20.6029 6.83144 21.2172 7.48893 22.1567C7.8484 21.9231 8.27733 21.7872 8.73786 21.7872C8.97732 21.7872 9.20804 21.824 9.425 21.8921C9.99161 18.7951 11.6582 16.0828 14.0052 14.1742L14.0027 14.1753L14.0071 14.1726C15.7538 12.753 18.8416 11.3128 20.9152 10.086C21.7586 10.8767 22.1804 11.2722 22.1804 11.2722C24.0518 10.376 24.9873 9.92777 24.9873 9.92777C24.6184 9.00527 24.4339 8.54402 24.4339 8.54402C36.0313 3.37795 41.83 0.794922 41.83 0.794922C42.6734 1.21653 43.0952 1.42742 43.0952 1.42742C44.1495 3.64153 44.6766 4.7485 44.6766 4.7485C44.4657 5.56564 44.3602 5.97421 44.3602 5.97421C38.3507 11.7201 35.3459 14.5931 35.3459 14.5931C34.1309 16.0347 33.8061 17.7735 34.3713 19.8094C34.4652 20.0681 34.5509 20.3306 34.6288 20.5969L34.6329 20.6081L34.6313 20.6058C34.9673 21.759 35.1484 22.9783 35.1484 24.2403C35.1484 31.4023 29.3423 37.2081 22.1804 37.2081C15.7152 37.2081 10.3555 32.4765 9.37394 26.2874C9.17197 26.3457 8.95858 26.3769 8.73786 26.3769C8.33876 26.3769 7.9634 26.2748 7.63644 26.0957C7.00251 27.1624 5.83858 27.8774 4.5075 27.8774C2.49875 27.8774 0.870178 26.249 0.870178 24.2403C0.870178 22.2314 2.49876 20.6029 4.50751 20.6029ZM6.78376 25.2854C6.56787 24.9356 6.44323 24.5233 6.44323 24.082C6.44323 23.702 6.53555 23.3437 6.69912 23.0279C6.27216 22.2576 5.45073 21.736 4.50751 21.736C3.12465 21.736 2.0034 22.8572 2.0034 24.2403C2.0034 25.6231 3.12465 26.7444 4.50751 26.7444C5.51751 26.7444 6.38769 26.1465 6.78376 25.2854ZM22.1804 21.9454C23.4479 21.9454 24.4753 22.9728 24.4753 24.2403C24.4753 25.5076 23.4479 26.5349 22.1804 26.5349C20.9131 26.5349 19.8856 25.5076 19.8856 24.2403C19.8856 22.9728 20.9131 21.9454 22.1804 21.9454ZM22.1804 14.356C27.6394 14.356 32.0647 18.7812 32.0647 24.2403C32.0647 29.6992 27.6394 34.1244 22.1804 34.1244C16.7215 34.1244 12.2963 29.6992 12.2963 24.2403C12.2963 18.7812 16.7215 14.356 22.1804 14.356ZM22.1804 15.5937C26.956 15.5937 30.827 19.4647 30.827 24.2403C30.827 29.0156 26.956 32.8867 22.1804 32.8867C17.4051 32.8867 13.534 29.0156 13.534 24.2403C13.534 19.4647 17.4051 15.5937 22.1804 15.5937Z" fill="#9900CC"/>
</svg>
