<svg width="200" height="40" viewBox="0 0 200 40" fill="none" xmlns="http://www.w3.org/2000/svg">
<path fill-rule="evenodd" clip-rule="evenodd" d="M7.50751 20.6029C8.74126 20.6029 9.83144 21.2172 10.4889 22.1567C10.8484 21.9231 11.2773 21.7872 11.7379 21.7872C11.9773 21.7872 12.208 21.824 12.425 21.8921C12.9916 18.7951 14.6582 16.0828 17.0052 14.1742L17.0027 14.1753L17.0071 14.1726C18.7538 12.753 21.8416 11.3128 23.9152 10.086C24.7586 10.8767 25.1804 11.2722 25.1804 11.2722C27.0518 10.376 27.9873 9.92777 27.9873 9.92777C27.6184 9.00527 27.4339 8.54402 27.4339 8.54402C39.0313 3.37795 44.83 0.794922 44.83 0.794922C45.6734 1.21653 46.0952 1.42742 46.0952 1.42742C47.1495 3.64153 47.6766 4.7485 47.6766 4.7485C47.4657 5.56564 47.3602 5.97421 47.3602 5.97421C41.3507 11.7201 38.3459 14.5931 38.3459 14.5931C37.1309 16.0347 36.8061 17.7735 37.3713 19.8094C37.4652 20.0681 37.5509 20.3306 37.6288 20.5969L37.6329 20.6081L37.6313 20.6058C37.9673 21.759 38.1484 22.9783 38.1484 24.2403C38.1484 31.4023 32.3423 37.2081 25.1804 37.2081C18.7152 37.2081 13.3555 32.4765 12.3739 26.2874C12.172 26.3457 11.9586 26.3769 11.7379 26.3769C11.3388 26.3769 10.9634 26.2748 10.6364 26.0957C10.0025 27.1624 8.83858 27.8774 7.5075 27.8774C5.49875 27.8774 3.87018 26.249 3.87018 24.2403C3.87018 22.2314 5.49876 20.6029 7.50751 20.6029ZM9.78376 25.2854C9.56787 24.9356 9.44323 24.5233 9.44323 24.082C9.44323 23.702 9.53555 23.3437 9.69912 23.0279C9.27216 22.2576 8.45073 21.736 7.50751 21.736C6.12465 21.736 5.0034 22.8572 5.0034 24.2403C5.0034 25.6231 6.12465 26.7444 7.50751 26.7444C8.51751 26.7444 9.38769 26.1465 9.78376 25.2854ZM25.1804 21.9454C26.4479 21.9454 27.4753 22.9728 27.4753 24.2403C27.4753 25.5076 26.4479 26.5349 25.1804 26.5349C23.9131 26.5349 22.8856 25.5076 22.8856 24.2403C22.8856 22.9728 23.9131 21.9454 25.1804 21.9454ZM25.1804 14.356C30.6394 14.356 35.0647 18.7812 35.0647 24.2403C35.0647 29.6992 30.6394 34.1244 25.1804 34.1244C19.7215 34.1244 15.2963 29.6992 15.2963 24.2403C15.2963 18.7812 19.7215 14.356 25.1804 14.356ZM25.1804 15.5937C29.956 15.5937 33.827 19.4647 33.827 24.2403C33.827 29.0156 29.956 32.8867 25.1804 32.8867C20.4051 32.8867 16.534 29.0156 16.534 24.2403C16.534 19.4647 20.4051 15.5937 25.1804 15.5937Z" fill="#b859b8"/>
<path d="M44.7116 34.8301C44.9143 32.7051 45.0476 31.0348 45.1168 29.8191C45.2107 28.1585 45.3046 25.8803 45.3985 22.9892C45.4875 20.0932 45.5369 18.0521 45.5369 16.8612C45.5369 16.4362 45.5319 15.8382 45.5221 15.0673C46.8069 15.0969 47.825 15.1117 48.5762 15.1117C49.6287 15.1117 50.8544 15.0869 52.253 15.0475C53.6516 15.003 54.8525 14.9784 55.8557 14.9784C57.0664 14.9784 57.9214 15.0128 58.4353 15.0821C59.1125 15.166 59.7005 15.3242 60.2096 15.5466C60.7137 15.7691 61.1387 16.0409 61.4746 16.3719C61.8503 16.7575 62.1467 17.2169 62.3592 17.7607C62.6014 18.3784 62.7201 19.0357 62.7201 19.7423C62.7201 20.2909 62.6508 20.8196 62.5125 21.3189C62.3692 21.8228 62.1716 22.2676 61.9146 22.658C61.6625 23.0485 61.3758 23.3746 61.0546 23.6366C60.7383 23.8985 60.4269 24.1012 60.1207 24.2444C59.8191 24.3878 59.4089 24.531 58.9 24.6794C59.4089 24.7634 59.8191 24.8623 60.1305 24.9759C60.4369 25.0846 60.768 25.2625 61.1189 25.5096C61.4746 25.7568 61.786 26.073 62.0676 26.4585C62.3494 26.8439 62.5569 27.2789 62.7003 27.7532C62.8387 28.2326 62.9078 28.7367 62.9078 29.2705C62.9078 30.0019 62.7892 30.6937 62.5471 31.341C62.305 31.9885 61.9689 32.5419 61.5341 33.0066C61.1683 33.4019 60.6889 33.738 60.1008 34.0196C59.5126 34.3014 58.9098 34.4941 58.2921 34.5978C57.788 34.6769 56.8737 34.7314 55.5492 34.7709C54.22 34.8103 52.8114 34.8301 51.3289 34.8301L47.5185 34.8153L44.7116 34.8301ZM51.1657 22.7668H53.2216C53.8987 22.7668 54.378 22.7519 54.6598 22.7175C54.9464 22.6828 55.2232 22.6235 55.495 22.5346C55.7667 22.4505 55.9991 22.3023 56.1967 22.0996C56.3944 21.8971 56.5326 21.6696 56.6167 21.4226C56.7007 21.1705 56.7403 20.9185 56.7403 20.6664C56.7403 20.3107 56.6562 19.9944 56.4882 19.7126C56.3201 19.431 56.0435 19.2234 55.6678 19.09C55.2923 18.9566 54.7191 18.8873 53.948 18.8873H51.3437L51.1657 22.7668ZM50.8346 30.8618H53.6121C54.3484 30.8618 54.8871 30.8173 55.233 30.7332C55.658 30.6246 55.9843 30.4862 56.2066 30.3132C56.4241 30.1353 56.6019 29.903 56.7303 29.6016C56.8639 29.3001 56.928 28.9689 56.928 28.6034C56.928 28.2821 56.8737 28.0053 56.77 27.7632C56.6612 27.521 56.503 27.3184 56.2905 27.1553C56.078 26.9921 55.821 26.8735 55.5098 26.7994C55.2034 26.7253 54.7191 26.6907 54.0618 26.6907H51.0125L50.8346 30.8618ZM63.2287 34.8301L63.6785 28.4007L63.8217 24.7091C63.8316 24.0467 63.8366 23.3648 63.8366 22.668C63.8366 21.9662 63.8268 21.0916 63.8069 20.0487C64.9732 20.0685 65.9023 20.0783 66.5843 20.0783C67.385 20.0783 68.3091 20.0685 69.3517 20.0487L69.2925 21.6846C69.6682 21.2594 69.9744 20.9432 70.2168 20.7357C70.4589 20.5282 70.7355 20.3403 71.0419 20.1723C71.3534 20.0042 71.6746 19.8757 72.0155 19.7967C72.3516 19.7126 72.7025 19.6732 73.0732 19.6732C73.4191 19.6732 73.8046 19.7226 74.2296 19.8164C74.2394 20.8691 74.2641 21.7389 74.3037 22.4258L74.4025 24.6546C73.8737 24.5014 73.3746 24.4223 72.915 24.4223C72.3318 24.4223 71.8326 24.5064 71.4176 24.6744C70.9975 24.8425 70.6269 25.0994 70.3007 25.4405C69.9794 25.7864 69.7225 26.2114 69.5298 26.7253C69.3369 27.2344 69.1987 28.0448 69.1244 29.1567C69.0455 30.2637 69.0059 31.5339 69.0059 32.9621C69.0059 33.4662 69.0257 34.0889 69.0651 34.8301C68.1262 34.8103 67.1873 34.8005 66.2434 34.8005C65.3044 34.8005 64.3012 34.8103 63.2287 34.8301ZM75.0694 24.2642C75.2523 23.3105 75.3709 22.6482 75.4153 22.2875C75.4648 21.9268 75.5439 21.3584 75.6476 20.5875C78.43 19.9796 80.8169 19.6732 82.8184 19.6732C83.955 19.6732 84.9978 19.8016 85.9466 20.0585C86.8905 20.3107 87.6319 20.7259 88.1607 21.2941C88.6944 21.8625 88.9564 22.6778 88.9564 23.7403C88.9564 24.2841 88.8871 25.4998 88.7389 27.3875C88.5955 29.2803 88.4819 31.7612 88.4078 34.8301C87.4589 34.8103 86.5199 34.8005 85.5808 34.8005C84.6716 34.8005 83.708 34.8103 82.685 34.8301C82.8233 33.7676 82.9766 31.5783 83.1446 28.2573C82.7789 28.4303 82.4873 28.5539 82.2798 28.633C82.0721 28.7119 81.7064 28.8257 81.1875 28.9789C80.6637 29.1369 80.2535 29.2655 79.9619 29.3692C79.6655 29.478 79.4083 29.6114 79.191 29.7744C78.9735 29.9425 78.8153 30.1105 78.7264 30.2835C78.6325 30.4566 78.588 30.6492 78.588 30.8617C78.588 31.188 78.7166 31.4696 78.9785 31.7019C79.2403 31.9341 79.6555 32.0478 80.2239 32.0478C80.4264 32.0478 80.6439 32.033 80.8762 31.9983C81.1085 31.9639 81.4248 31.8798 81.83 31.7414C81.5483 32.4876 81.2171 33.575 80.8317 35.0032C80.0014 35.1366 79.2157 35.2057 78.4694 35.2057C77.2735 35.2057 76.2801 35.0376 75.4796 34.7066C74.6839 34.3755 74.071 33.8367 73.6412 33.0905C73.2112 32.3492 72.9987 31.603 72.9987 30.8617C72.9987 30.4071 73.0778 29.9623 73.2358 29.5323C73.399 29.0975 73.646 28.6725 73.9821 28.2573C74.3232 27.8423 74.7185 27.4864 75.1732 27.1898C75.6278 26.8983 76.2455 26.6216 77.0314 26.3596C77.8221 26.0976 78.8153 25.8507 80.0262 25.6183C80.5253 25.5244 80.9898 25.4207 81.4099 25.3069C81.8299 25.1982 82.1265 25.1044 82.3044 25.0203C82.4823 24.9364 82.6307 24.8425 82.7392 24.7287C82.853 24.62 82.9321 24.5064 82.9814 24.3828C83.026 24.2642 83.0506 24.1357 83.0506 24.0023C83.0506 23.6366 82.8974 23.355 82.586 23.1573C82.2798 22.9596 81.8249 22.8607 81.2271 22.8607C79.5665 22.8607 77.5107 23.3301 75.0694 24.2642ZM90.2162 18.2103C90.2755 17.0637 90.3051 16.1544 90.3051 15.4873C90.3051 15.2946 90.3001 15.0326 90.2903 14.7064C91.4566 14.7262 92.4351 14.736 93.2259 14.736C94.318 14.736 95.2718 14.7262 96.0921 14.7064C96.0625 15.008 96.0428 15.255 96.0328 15.4576L95.9489 17.2566C95.9291 17.5234 95.9192 17.8446 95.9192 18.2103C94.9655 18.1905 94.0462 18.1807 93.1716 18.1807C92.2621 18.1807 91.2787 18.1905 90.2162 18.2103ZM89.3019 34.8301C89.4353 33.6539 89.5391 32.6803 89.6083 31.9192C89.6726 31.1582 89.7367 30.1848 89.801 28.9937C89.8653 27.8076 89.9196 26.498 89.9691 25.0599C90.0185 23.6217 90.0532 21.9514 90.0828 20.0487C91.338 20.0685 92.3412 20.0783 93.0925 20.0783C93.7794 20.0783 94.7628 20.0685 96.0476 20.0487C95.8846 21.8723 95.766 23.4735 95.6919 24.8573C95.6226 26.236 95.5734 27.6989 95.5535 29.2408C95.5189 31.9835 95.4991 33.8467 95.4991 34.8301C94.3476 34.8103 93.3592 34.8005 92.5291 34.8005C91.7087 34.8005 90.6362 34.8103 89.3019 34.8301ZM96.2255 34.8301C96.5071 32.6408 96.7196 30.2192 96.8678 27.5703C97.021 24.9216 97.11 22.411 97.1396 20.0487C98.296 20.0685 99.2944 20.0783 100.134 20.0783C101.108 20.0783 102.042 20.0685 102.942 20.0487L102.798 22.0157C103.115 21.6598 103.391 21.3782 103.624 21.1705C103.856 20.963 104.142 20.7603 104.483 20.5626C104.824 20.365 105.19 20.2019 105.576 20.0784C105.961 19.9548 106.386 19.856 106.846 19.7819C107.3 19.7078 107.78 19.6732 108.284 19.6732C108.981 19.6732 109.658 19.7473 110.32 19.8955C110.977 20.0487 111.531 20.2612 111.975 20.533C112.42 20.8098 112.791 21.1508 113.092 21.561C113.389 21.9712 113.587 22.4159 113.685 22.8855C113.779 23.3598 113.829 23.8491 113.829 24.3482C113.829 24.7139 113.789 25.5046 113.715 26.7203L113.468 31.9639C113.424 32.9967 113.399 33.9505 113.399 34.8301C112.42 34.8103 111.511 34.8005 110.661 34.8005C109.509 34.8005 108.462 34.8103 107.518 34.8301C107.607 33.9505 107.696 32.6458 107.795 30.916C107.889 29.1814 107.938 27.9608 107.938 27.2591C107.938 26.1669 107.725 25.4058 107.305 24.9758C106.89 24.5458 106.361 24.3333 105.724 24.3333C105.165 24.3333 104.637 24.5162 104.137 24.8819C103.643 25.2526 103.258 25.7814 102.986 26.4832C102.719 27.1849 102.526 28.3364 102.418 29.9376C102.304 31.5387 102.23 33.1696 102.19 34.8301C101.227 34.8103 100.283 34.8005 99.3685 34.8005C98.4048 34.8005 97.3571 34.8103 96.2255 34.8301Z" fill="#b859b8"/>
<path d="M122.852 34.8301C123.336 30.1402 123.622 24.9759 123.721 19.3372L117.554 19.4952L117.623 17.8891C117.662 17.0293 117.692 16.0902 117.712 15.0673C120.455 15.087 123.647 15.097 127.294 15.097L130.872 15.0822H134.347L136.229 15.0673L136.14 16.4856C136.101 17.2466 136.076 17.8743 136.061 18.3686C136.047 18.8677 136.042 19.2432 136.042 19.4952C133.976 19.3915 132.271 19.3372 130.932 19.3372H129.919C129.775 21.0422 129.662 22.6186 129.587 24.0616C129.479 26.1323 129.395 28.1438 129.34 30.0957C129.281 32.0479 129.251 33.6243 129.251 34.8302C127.67 34.8104 126.647 34.8006 126.182 34.8006C125.767 34.8006 124.656 34.8103 122.852 34.8301ZM134.811 34.8301L135.261 28.4007L135.404 24.7091C135.414 24.0467 135.419 23.3648 135.419 22.668C135.419 21.9662 135.409 21.0916 135.389 20.0487C136.555 20.0685 137.484 20.0783 138.166 20.0783C138.967 20.0783 139.891 20.0685 140.934 20.0487L140.875 21.6846C141.25 21.2594 141.557 20.9432 141.799 20.7357C142.041 20.5282 142.318 20.3403 142.624 20.1723C142.936 20.0042 143.257 19.8757 143.598 19.7967C143.934 19.7126 144.285 19.6732 144.655 19.6732C145.001 19.6732 145.387 19.7226 145.812 19.8164C145.822 20.8691 145.846 21.7389 145.886 22.4258L145.985 24.6546C145.456 24.5014 144.957 24.4223 144.497 24.4223C143.914 24.4223 143.415 24.5064 143 24.6744C142.58 24.8425 142.209 25.0994 141.883 25.4405C141.562 25.7864 141.305 26.2114 141.112 26.7253C140.919 27.2344 140.781 28.0448 140.707 29.1567C140.628 30.2637 140.588 31.5339 140.588 32.9621C140.588 33.4662 140.608 34.0889 140.647 34.8301C139.708 34.8103 138.769 34.8005 137.826 34.8005C136.887 34.8005 135.883 34.8103 134.811 34.8301ZM146.652 24.2642C146.834 23.3105 146.953 22.6482 146.997 22.2875C147.047 21.9268 147.126 21.3584 147.23 20.5875C150.012 19.9796 152.399 19.6732 154.4 19.6732C155.537 19.6732 156.58 19.8016 157.529 20.0585C158.473 20.3107 159.214 20.7259 159.743 21.2941C160.277 21.8625 160.539 22.6778 160.539 23.7403C160.539 24.2841 160.469 25.4998 160.321 27.3875C160.178 29.2803 160.064 31.7612 159.99 34.8301C159.041 34.8103 158.102 34.8005 157.163 34.8005C156.254 34.8005 155.29 34.8103 154.267 34.8301C154.405 33.7676 154.559 31.5783 154.727 28.2573C154.361 28.4303 154.069 28.5539 153.862 28.633C153.654 28.7119 153.289 28.8257 152.77 28.9789C152.246 29.1369 151.836 29.2655 151.544 29.3692C151.248 29.478 150.99 29.6114 150.773 29.7744C150.556 29.9425 150.397 30.1105 150.309 30.2835C150.215 30.4566 150.17 30.6492 150.17 30.8617C150.17 31.188 150.299 31.4696 150.561 31.7019C150.822 31.9341 151.238 32.0478 151.806 32.0478C152.009 32.0478 152.226 32.033 152.458 31.9983C152.691 31.9639 153.007 31.8798 153.412 31.7414C153.13 32.4876 152.799 33.575 152.414 35.0032C151.584 35.1366 150.798 35.2057 150.052 35.2057C148.856 35.2057 147.862 35.0376 147.062 34.7066C146.266 34.3755 145.653 33.8367 145.223 33.0905C144.793 32.3492 144.581 31.603 144.581 30.8617C144.581 30.4071 144.66 29.9623 144.818 29.5323C144.981 29.0975 145.228 28.6725 145.564 28.2573C145.905 27.8423 146.301 27.4864 146.755 27.1898C147.21 26.8983 147.828 26.6216 148.614 26.3596C149.404 26.0976 150.397 25.8507 151.608 25.6183C152.107 25.5244 152.572 25.4207 152.992 25.3069C153.412 25.1982 153.709 25.1044 153.887 25.0203C154.064 24.9364 154.213 24.8425 154.321 24.7287C154.435 24.62 154.514 24.5064 154.564 24.3828C154.608 24.2642 154.633 24.1357 154.633 24.0023C154.633 23.6366 154.48 23.355 154.168 23.1573C153.862 22.9596 153.407 22.8607 152.809 22.8607C151.149 22.8607 149.093 23.3301 146.652 24.2642ZM161.798 18.2103C161.858 17.0637 161.887 16.1544 161.887 15.4873C161.887 15.2946 161.882 15.0326 161.872 14.7064C163.039 14.7262 164.017 14.736 164.808 14.736C165.9 14.736 166.854 14.7262 167.674 14.7064C167.645 15.008 167.625 15.255 167.615 15.4576L167.531 17.2566C167.511 17.5234 167.501 17.8446 167.501 18.2103C166.548 18.1905 165.628 18.1807 164.754 18.1807C163.844 18.1807 162.861 18.1905 161.798 18.2103ZM160.884 34.8301C161.017 33.6539 161.121 32.6803 161.19 31.9192C161.255 31.1582 161.319 30.1848 161.383 28.9937C161.447 27.8076 161.502 26.498 161.551 25.0599C161.601 23.6217 161.635 21.9514 161.665 20.0487C162.92 20.0685 163.923 20.0783 164.675 20.0783C165.362 20.0783 166.345 20.0685 167.63 20.0487C167.467 21.8723 167.348 23.4735 167.274 24.8573C167.205 26.236 167.156 27.6989 167.136 29.2408C167.101 31.9835 167.081 33.8467 167.081 34.8301C165.93 34.8103 164.941 34.8005 164.111 34.8005C163.291 34.8005 162.218 34.8103 160.884 34.8301ZM167.808 34.8301C168.089 32.6408 168.302 30.2192 168.45 27.5703C168.603 24.9216 168.692 22.411 168.722 20.0487C169.878 20.0685 170.877 20.0783 171.717 20.0783C172.69 20.0783 173.624 20.0685 174.524 20.0487L174.38 22.0157C174.697 21.6598 174.973 21.3782 175.206 21.1705C175.438 20.963 175.725 20.7603 176.065 20.5626C176.407 20.365 176.772 20.2019 177.158 20.0784C177.543 19.9548 177.968 19.856 178.428 19.7819C178.882 19.7078 179.362 19.6732 179.866 19.6732C180.563 19.6732 181.24 19.7473 181.902 19.8955C182.559 20.0487 183.113 20.2612 183.558 20.533C184.002 20.8098 184.373 21.1508 184.674 21.561C184.971 21.9712 185.169 22.4159 185.267 22.8855C185.361 23.3598 185.411 23.8491 185.411 24.3482C185.411 24.7139 185.371 25.5046 185.297 26.7203L185.05 31.9639C185.006 32.9967 184.981 33.9505 184.981 34.8301C184.002 34.8103 183.093 34.8005 182.243 34.8005C181.092 34.8005 180.044 34.8103 179.1 34.8301C179.189 33.9505 179.278 32.6458 179.377 30.916C179.471 29.1814 179.52 27.9608 179.52 27.2591C179.52 26.1669 179.307 25.4058 178.887 24.9758C178.472 24.5458 177.944 24.3333 177.306 24.3333C176.748 24.3333 176.219 24.5162 175.72 24.8819C175.225 25.2526 174.84 25.7814 174.568 26.4832C174.301 27.1849 174.109 28.3364 174 29.9376C173.886 31.5387 173.812 33.1696 173.772 34.8301C172.809 34.8103 171.865 34.8005 170.951 34.8005C169.987 34.8005 168.939 34.8103 167.808 34.8301Z" fill="#b859b8"/>
</svg>
