<?xml version="1.0" encoding="UTF-8"?>
<!DOCTYPE svg PUBLIC "-//W3C//DTD SVG 1.1//EN" "http://www.w3.org/Graphics/SVG/1.1/DTD/svg11.dtd">
<!-- Creator: CorelDRAW -->
<svg xmlns="http://www.w3.org/2000/svg" xml:space="preserve" width="2480px" height="3508px" style="shape-rendering:geometricPrecision; text-rendering:geometricPrecision; image-rendering:optimizeQuality; fill-rule:evenodd; clip-rule:evenodd"
viewBox="0 0 2480 3507.43"
 xmlns:xlink="http://www.w3.org/1999/xlink">
 <defs>
  <style type="text/css">
   <![CDATA[
    .str0 {stroke:black;stroke-width:2.3619}
    .fil0 {fill:#2A2B2B}
    .fil2 {fill:blue}
    .fil1 {fill:black;fill-rule:nonzero}
   ]]>
  </style>
 </defs>
 <g id="Camada_x0020_1">
  <metadata id="CorelCorpID_0Corel-Layer"/>
  <path class="fil0" d="M442.023 1702.11c0.478286,-1.25653 -0.445219,-0.596381 2.84373,-3.21691 1.50808,-1.20103 2.85082,-2.11036 4.12389,-3.04568 2.69848,-1.98164 5.34853,-4.93166 10.0157,-3.14606l9.12404 5.31783c3.43539,2.42095 15.7161,5.98861 21.0646,7.10225 10.1444,2.11154 28.9499,4.2101 39.2974,2.71619 13.5668,-1.9592 24.6536,-18.3248 19.0795,-35.8939 -5.4808,-17.2738 -28.1752,-9.97196 -44.2928,-12.3728 -15.3618,-2.28987 -17.6387,-4.4144 -26.4864,-8.49341 -2.56739,-1.18213 -2.35364,-1.01916 -4.42857,-2.57448 -5.76895,-4.32701 -9.43581,-8.70008 -14.2187,-13.9459l-6.03112 -9.3744c-11.6029,-25.0905 -0.40979,-68.063 -9.73813,-81.5814 -3.02914,-4.39078 -14.7985,-7.88286 -22.013,-4.84545 -5.16903,2.1765 -13.8455,6.90975 -14.7654,13.431 -2.78941,31.5161 -4.60571,25.0362 -0.00826667,59.174 2.80004,20.7895 8.2277,29.6643 16.3078,46.8047 -17.7958,18.9224 -60.3266,12.5807 -80.3343,3.59482 -5.58709,-2.50952 -6.97234,-3.27714 -12.0445,-5.92484 -3.07166,-1.60137 -2.42095,-1.49509 -5.00133,-3.19093 -24.4823,-16.1046 -38.9136,-45.6544 -38.4719,-78.6018 0.050781,-3.83928 1.81394,-23.9332 3.93611,-27.7725 2.72564,-4.93284 0.073219,-1.37227 2.71855,-2.73981 -0.473562,-9.48777 22.7499,-51.9891 35.3223,-57.621 0.622362,-2.2757 0.919962,-2.56975 3.01379,-3.03623 3.41531,-8.52293 19.5873,-18.7228 26.0518,-22.901 2.45166,-1.58602 4.62225,-3.4165 7.55219,-4.53958 24.343,-9.34133 39.1379,-14.4371 67.9603,-14.2706 8.57962,0.050781 34.4637,3.70347 39.1131,7.11642l-2.34065 19.8353c-2.88152,20.5143 2.24027,35.5349 2.74453,44.7439 0.498362,9.1075 6.58027,29.0314 10.8837,35.6034 8.61387,13.1558 21.9197,10.2991 29.5274,2.51189 10.3428,-10.5849 8.00095,-22.6554 3.18503,-34.72 -7.82499,-19.605 -7.97025,-41.4373 -1.92259,-60.114 4.68248,-14.4584 18.6874,-29.4506 31.483,-36.1005 9.72632,-5.05448 16.5865,-5.73589 24.4209,-8.65874 5.2765,-1.96747 16.1672,-2.57448 21.3646,-12.5984 3.90659,-7.5333 2.63943,-19.3511 -3.23581,-27.2021 -10.8778,-14.5387 -25.0279,-6.34998 -39.0057,-2.17059l-15.8685 6.44564 -9.67554 6.73261c-0.0354286,0.0283429 -1.6061,1.33684 -1.68758,1.40415l-20.023 15.2071c-12.0587,11.2356 -7.20145,9.15947 -20.8804,3.23935 -6.15276,-2.66305 -11.9867,-1.70057 -18.5221,-3.26415 -17.3317,-4.14632 -20.1045,-3.75897 -39.5607,-3.53577 -11.8768,0.13581 -36.2115,5.67566 -37.2189,2.79059 -0.279886,-0.800686 -4.38842,-49.0237 0.121638,-61.6646 1.68404,-4.71909 3.1248,-11.9276 5.09817,-16.1649 5.63314,-12.0918 8.61387,-17.2006 17.0494,-26.1215 6.0323,-6.37596 15.4315,-14.0085 24.578,-17.7261 31.0968,-12.6362 34.1,-2.48709 45.8918,-17.6942 7.05029,-9.09215 6.85543,-22.4853 -2.06194,-30.7579 -15.1457,-14.0486 -35.8242,2.356 -50.7195,0.364914 -0.7192,3.84046 -3.37516,3.09055 -10.8577,6.69954 -4.48171,2.16114 -6.80347,3.46373 -10.6427,5.79848 -7.31364,4.44629 -14.0947,8.96933 -19.8483,14.3864 -12.6917,11.9489 -24.702,28.6605 -31.4653,45.3474l-6.10434 19.4798c-11.5296,35.9683 -1.5435,85.0309 -3.54876,97.4864l-26.3754 17.2171c-9.8208,7.53566 -6.84952,5.93665 -15.3323,13.9364 -7.82381,7.37623 -8.68,10.7396 -18.5457,17.7769l-11.48 -12.3681c-5.21154,-6.50587 -13.2467,-25.7802 -15.0737,-33.6536 -5.37688,-23.1809 -2.50244,-45.743 3.8133,-65.8003 2.32648,-7.39158 4.48644,-10.8801 7.50968,-17.2372 7.26404,-15.2756 10.1881,-16.5085 6.06301,-39.393 -3.21455,-17.8253 -1.34274,-53.1145 4.15341,-67.6213 5.15131,-13.5963 8.56663,-18.8669 16.0444,-32.2908 4.17939,-7.50377 14.5411,-19.6959 21.4107,-25.8723 19.3511,-17.4013 12.6315,-9.6909 28.5472,-19.0275 9.70861,-5.69455 22.992,-9.65901 36.965,-9.81253 17.7745,-0.197219 42.219,3.90423 57.3482,12.7779 16.5664,9.71688 29.8627,7.49787 35.9234,-11.8225 1.07585,-3.42949 2.25326,-5.89295 0.92941,-10.7006 -0.0862095,-0.311771 -3.76133,-7.84861 -4.31756,-8.61859 -5.98979,-8.28674 -28.6912,-17.9729 -37.9452,-19.8896 -3.74598,-0.777067 -7.45063,-0.331848 -10.9592,-1.5317 -4.03531,-1.38171 -2.57211,-2.09147 -7.60888,-3.22282 -12.498,-2.80594 -39.9445,-2.31703 -41.2436,-3.99044 -3.25707,-4.19238 -2.08202,-10.6782 0.1984,-13.6388 -1.96865,-9.11577 9.63539,-27.6768 11.5285,-32.2199 1.3451,-3.22636 1.41124,-3.06339 3.05985,-5.62133 9.11341,-14.1537 29.9265,-37.239 46.1103,-40.2221 5.35326,-0.588114 4.7427,-2.17768 9.68853,-3.70583 3.76606,-1.16206 8.34461,-0.923505 12.1544,-2.16941 12.1355,-3.968 39.5005,-1.86827 50.6381,2.03124 6.26613,2.19421 13.1322,5.85989 16.518,9.94952 7.77303,1.1408 16.5227,11.8875 20.7056,17.1274 4.60453,5.76895 12.3386,15.03 15.4717,21.2583 4.75215,9.44408 7.46126,17.4002 18.7547,18.2138 10.8624,0.782971 19.8506,-6.03939 22.385,-13.1098 5.32137,-14.8434 -4.32583,-26.8159 -9.93535,-35.7439 -0.73101,-1.1656 -1.19276,-1.99935 -1.9899,-3.23935 -0.127543,-0.1984 -0.295238,-0.464114 -0.426324,-0.661333 -0.131086,-0.196038 -0.31059,-0.454667 -0.442857,-0.648343 -0.132267,-0.190133 -0.320038,-0.440495 -0.452305,-0.628267 -0.129905,-0.184229 -0.323581,-0.426324 -0.452305,-0.60819 -13.2432,-18.7146 -6.92747,-11.7233 -24.8378,-29.7222 -3.1496,-3.16495 -4.98244,-4.91749 -9.45116,-8.2773 -4.40495,-3.31021 -6.49288,-3.40114 -7.91356,-9.43109 6.19528,-9.24922 8.97996,-12.2276 18.1855,-17.7627 0.201943,-0.121638 0.441676,-0.302324 0.635352,-0.425143 4.75806,-2.976 2.56621,-1.64979 11.2096,-3.04686 13.7546,-2.22373 28.8294,1.13135 38.081,10.7656 22.3578,23.2848 16.8286,51.0974 16.851,89.1147 0.0141714,23.5706 0.779429,48.7096 -0.121638,72.0924 -13.6766,10.083 -13.8691,7.89939 -24.3442,14.0085l-15.9039 10.0298c-2.91105,1.99463 -4.55139,3.49208 -7.06446,5.44419 -4.00579,3.11299 -8.81109,9.12758 -12.191,12.8346 -8.88785,9.7405 -27.1123,33.0655 -30.3706,47.2121 -0.527886,2.29459 -0.50899,3.23581 -1.21402,5.62015 -1.39943,4.73562 -1.1101,2.29105 -1.87063,4.31756 -0.960114,2.56385 -1.07349,8.22888 -1.70175,11.2285 -4.12979,19.6971 7.14004,29.7281 22.3188,26.9517 18.417,-3.37044 18.0355,-21.1804 21.7579,-29.9549 6.52122,-15.3748 9.89756,-22.4133 18.9,-32.749l3.5027 -3.89124c1.1349,-1.18213 1.94267,-1.80922 3.19566,-2.9512 5.74297,-5.23398 6.74914,-7.24278 13.6872,-11.0549 3.7448,-2.05722 7.20263,-3.62434 8.85478,-1.15497 2.76579,4.14042 1.24827,34.407 1.24,39.1379l-0.21021 522.117c0.00472381,13.4865 0.2232,26.9482 0.227924,40.4157 0.0023619,7.84152 1.93912,33.3029 -1.3451,37.9038 -5.36507,0.642438 -4.09909,1.23646 -9.51848,-2.00998 -19.0417,-11.4056 -34.2854,-33.8426 -41.3936,-57.0294 -3.4283,-11.1848 -16.6373,-27.1324 -33.0253,-17.4852 -16.7506,9.85977 -11.2462,23.6982 -5.05448,40.2173 2.99962,8.00331 14.8954,29.845 19.9357,35.9281 16.8782,20.3691 21.0375,26.3447 42.708,40.7027 22.627,14.9922 29.2298,2.2627 27.6957,27.7701 -2.46819,41.0428 -67.1466,27.7394 -88.0117,4.25025 -2.09147,-2.35482 -4.21482,-5.19501 -6.49878,-8.20053 -1.54587,-2.03714 -1.5435,-2.12926 -3.02678,-4.40141 -5.14069,-7.87341 -1.4939,-2.05131 -4.81947,-8.90674 -1.24472,-2.56739 -1.92377,-2.76461 -2.46701,-3.71055 -1.26952,-2.21074 -1.8848,-7.41166 -3.10827,-10.6073 -7.94309,-20.7434 5.65322,-35.4982 -10.6451,-46.6134 -7.4152,-5.05566 -12.5358,-5.65794 -22.6908,-3.02442 -8.1781,2.12099 -12.9007,3.37044 -22.8018,3.59954 -15.4079,0.354286 -38.8616,-5.40404 -50.2708,-18.1087 -6.97589,-7.76712 -12.6645,-12.6362 -18.1123,-22.7499 -4.35299,-8.08008 -13.7912,-33.4139 -9.66846,-45.4997l15.8732 -2.18949c18.7949,-2.31703 36.0368,-11.9005 40.6047,-11.6749zm-191.709 -79.817c0.0673143,3.07638 0.0023619,0.36019 -0.0696762,2.50362 4.34945,2.64179 4.2656,9.06027 9.82907,18.6732 1.91905,3.31493 3.11063,5.23044 5.19619,8.52175 2.7091,4.27505 9.79364,13.8419 13.1286,17.3328l13.0413 13.033c3.6456,4.26324 3.36335,3.62907 7.66438,6.95699 12.2547,9.48541 13.4156,8.30682 21.0812,13.0507 6.90975,4.27741 7.47661,3.47909 14.7749,6.50114 9.26575,3.83573 4.7427,8.72724 6.73143,22.8066 2.77524,19.6499 0.591657,7.13768 5.06392,23.7797 2.7587,10.2613 12.2453,31.2622 17.543,38.5238 18.4878,25.3421 21.4721,25.4968 43.7354,40.6696l18.9897 8.75912c18.3426,6.54248 24.4339,5.50324 41.6439,5.86579 0.6696,0.0129905 2.27333,0.048419 2.88152,0.138171 0.308229,0.0448762 0.571581,0.0944762 0.852648,0.153524 5.19973,1.07939 4.63524,3.64796 5.31665,6.1445 2.27097,8.32571 3.09291,12.2784 6.44564,20.2734 0.699124,1.66869 0.524343,1.53996 1.28251,2.96891l7.35143 13.588c6.22244,11.2627 13.7982,21.3776 23.0782,29.6254 2.99726,2.66423 2.66305,0.836114 5.44891,3.86998 6.90621,7.51912 7.0621,5.0037 9.20198,9.57044 14.5848,7.16484 0.402705,2.81893 25.0693,11.1057 14.0687,4.72617 9.57634,5.00606 29.1554,7.0928 6.89322,0.735733 34.5747,-1.22937 40.5917,-4.43211 4.29276,-2.28514 3.19211,-1.20575 7.12587,-2.32766 4.86316,-1.38526 1.9533,-1.38171 5.60952,-3.40114 0.233829,-0.128724 0.499543,-0.249181 0.745181,-0.364914 3.98808,-1.89425 3.2051,0.256267 7.75059,-5.3627 1.0971,-1.35691 1.39116,-1.84937 2.32411,-2.97954l8.68354 -10.2188c17.2313,-22.7121 13.8313,-48.1592 13.8384,-73.212 0.00354286,-13.4723 0.00944762,-26.9434 0.00944762,-40.4146l-0.0141714 -793.007c-0.0129905,-10.9994 0.883352,-29.0821 -1.01208,-38.1211l-3.25825 -16.022c-1.05695,-3.2795 -1.62145,-3.66095 -2.53196,-7.11288 -2.97482,-11.2805 -18.1701,-34.9869 -27.2824,-40.0178 -4.21246,-2.3253 -8.3576,-5.70164 -11.7611,-7.3101 -3.7507,-0.23501 -5.09581,-0.658971 -7.51794,-2.35128l-1.85055 -1.28724c-0.230286,-0.126362 -0.493638,-0.255086 -0.734552,-0.372 -18.313,-8.89021 -32.1396,-7.49314 -50.9959,-5.11707 -5.76777,0.727467 -8.20171,2.41505 -14.6828,4.2597 -9.86213,2.81067 -19.8376,11.9394 -26.7521,16.9301l-1.26716 0.795962c-0.168876,0.120457 -0.447581,0.255086 -0.60819,0.380267 -6.8507,5.32373 3.27714,-5.16667 -1.88362,2.02888l-8.43554 11.5733c-0.133448,0.179505 -0.312952,0.439314 -0.442857,0.622362l-4.7368 7.73051c-2.26152,3.52278 -1.35691,3.47672 -5.96735,4.39078 -13.9577,2.76933 -32.3262,-4.66358 -66.503,5.5552 -8.53474,2.55204 -19.0192,7.00187 -26.6151,11.3112 -15.3689,8.71779 -28.1763,20.31 -40.5185,34.0457 -6.05474,6.7397 -17.8359,24.565 -22.9223,33.78 -2.78587,5.04621 -3.33501,8.64811 -5.62133,13.4688 -4.20891,8.87958 -9.73223,34.8676 -10.8482,46.7149 -1.1219,11.9016 2.0395,14.6237 -8.29973,21.0989 -8.24541,5.16549 -24.8732,17.4462 -32.1018,23.8682 -2.80358,2.49181 -1.5376,2.67722 -6.88141,7.61832 -3.03741,2.80949 -2.10682,2.6477 -4.83364,5.79611l-2.01352 2.21429c-3.25116,3.64442 -5.2883,5.76895 -8.16274,10.9309 -0.705029,1.26716 -0.8184,1.56358 -1.52815,2.61109 -0.118095,0.177143 -0.307048,0.423962 -0.431048,0.596381l-0.906971 1.1715c-5.49733,7.31482 -15.1682,23.945 -17.6269,32.3486 -1.83756,6.27912 -7.068,13.692 -8.75912,29.9371 -0.586933,5.63669 -1.41124,12.3551 -2.19303,17.3824 -2.01116,12.9243 -2.24853,22.3968 -1.81985,37.2638 0.492457,17.0447 6.05592,16.453 -1.96392,32.2931 -5.42175,10.7101 -13.5609,29.349 -15.3559,41.9758 -5.93547,41.7597 -1.7667,79.6328 19.0358,113.377 6.28857,10.1999 9.11931,14.1266 16.6857,22.2243 0.666057,0.712114 1.02625,1.30968 1.86354,2.27097 1.5624,1.7915 1.3947,1.42895 2.62762,2.66895 6.43147,6.46808 5.11825,8.73314 0.381448,19.9971l-5.18674 13.6908c-1.6805,5.09817 -2.35364,10.39 -3.57474,15.735 -2.11509,9.25749 -2.15288,26.1675 -1.65451,37.2602 0.356648,7.92773 6.28857,30.3032 6.34762,34.0043z"/>
  <path class="fil0 str0" d="M989.655 1067.79c-3.07166,-7.29474 -7.24987,-14.3521 -8.32099,-16.9219 -1.3451,-3.22754 -1.41124,-3.06457 -3.05985,-5.62251 -9.11341,-14.1537 -29.9265,-37.2402 -46.1103,-40.2221 -5.35326,-0.588114 -4.7427,-2.17768 -9.68853,-3.70465 -3.76606,-1.16324 -8.34461,-0.924686 -12.1544,-2.17059 -12.1355,-3.968 -39.5005,-1.86827 -50.6381,2.03124 -6.26613,2.19303 -13.1322,5.85989 -16.518,9.94952 -7.77303,1.1408 -16.5227,11.8875 -20.7056,17.1285 -4.60453,5.76777 -12.3386,15.0288 -15.4717,21.256 -4.75215,9.44644 -7.46126,17.4013 -18.7547,18.2138 -10.8624,0.784152 -19.8506,-6.03821 -22.385,-13.1086 -5.32137,-14.8434 4.32583,-26.8159 9.93535,-35.7427 0.73101,-1.16678 1.19276,-2.00053 1.9899,-3.24053 0.127543,-0.1984 0.295238,-0.464114 0.426324,-0.661333 0.131086,-0.196038 0.31059,-0.453486 0.442857,-0.648343 0.132267,-0.190133 0.320038,-0.440495 0.452305,-0.628267 0.129905,-0.184229 0.323581,-0.426324 0.452305,-0.60819 13.2432,-18.7146 6.92747,-11.7233 24.8378,-29.7222 3.1496,-3.16377 4.98244,-4.91867 9.45116,-8.2773 4.40495,-3.31021 6.49288,-3.39996 7.91356,-9.4299 -6.19528,-9.25158 -8.97996,-12.2288 -18.1855,-17.7651 -0.201943,-0.120457 -0.441676,-0.301143 -0.635352,-0.422781 -4.75806,-2.97718 -2.56621,-1.64979 -11.2096,-3.04804 -13.7546,-2.22373 -28.8294,1.13135 -38.081,10.7667 -22.3578,23.2837 -16.8286,51.0963 -16.851,89.1135 -0.0141714,23.5706 -0.779429,48.7096 0.121638,72.0924 13.6766,10.083 13.8691,7.89821 24.3442,14.0085l15.9039 10.0298c2.91105,1.99463 4.55139,3.49208 7.06446,5.44419 4.00579,3.11299 8.81109,9.12758 12.191,12.8346 8.88785,9.74168 27.1123,33.0655 30.3706,47.2133 0.527886,2.29341 0.50899,3.23463 1.21402,5.61897 1.39943,4.73562 1.1101,2.29105 1.87063,4.31874 0.960114,2.56267 1.07349,8.2277 1.70175,11.2273 4.12979,19.6971 -7.14004,29.7281 -22.3188,26.9517 -18.417,-3.37044 -18.0355,-21.1792 -21.7579,-29.9549 -6.52122,-15.3748 -9.89756,-22.4133 -18.9,-32.749l-3.5027 -3.89006c-1.1349,-1.1845 -1.94267,-1.8104 -3.19566,-2.95238 -5.74297,-5.23398 -6.74914,-7.24278 -13.6872,-11.0549 -3.7448,-2.05604 -7.20263,-3.62434 -8.85478,-1.15497 -2.76579,4.14042 -1.24827,34.407 -1.24,39.1379l0.21021 522.118c-0.00472381,13.4853 -0.2232,26.947 -0.227924,40.4146 -0.0023619,7.84152 -1.93912,33.3029 1.3451,37.9038 5.36507,0.642438 4.09909,1.23646 9.51848,-2.00998 19.0417,-11.4068 34.2854,-33.8426 41.3936,-57.0294 3.4283,-11.1848 16.6373,-27.1324 33.0253,-17.4852 16.7506,9.86095 11.2462,23.6982 5.05448,40.2185 -2.99962,8.00213 -14.8954,29.8427 -19.9357,35.9269 -16.8782,20.3691 -21.0375,26.3447 -42.708,40.7027 -22.627,14.9922 -29.2298,2.2627 -27.6957,27.7701 2.46819,41.0428 67.1466,27.7394 88.0117,4.25143 2.09147,-2.356 4.21482,-5.19619 6.49878,-8.20171 1.54587,-2.03832 1.5435,-2.12926 3.02678,-4.40141 5.14069,-7.87341 1.4939,-2.05131 4.81947,-8.90674 1.24472,-2.56739 1.92377,-2.76461 2.46701,-3.71055 1.26952,-2.21074 1.8848,-7.41166 3.10827,-10.6073l0.2728 -0.740457 0 28.8235c0,14.1206 3.52278,27.541 9.8267,39.6186 -1.9899,2.1269 -4.06956,4.15931 -6.24133,6.09017 -2.99726,2.66423 -2.66305,0.836114 -5.44891,3.86998 -6.90621,7.51912 -7.0621,5.0037 -9.20198,9.57044 -14.5848,7.16484 -0.402705,2.81893 -25.0693,11.1057 -14.0687,4.72499 -9.57634,5.00488 -29.1554,7.0928 -6.89322,0.735733 -34.5747,-1.22937 -40.5917,-4.43211 -4.29276,-2.28514 -3.19211,-1.20575 -7.12587,-2.32766 -4.86316,-1.38644 -1.9533,-1.38171 -5.60952,-3.40114 -0.233829,-0.128724 -0.499543,-0.248 -0.745181,-0.364914 -3.98808,-1.89425 -3.2051,0.256267 -7.75059,-5.3627 -1.0971,-1.35691 -1.39116,-1.84937 -2.32411,-2.97836l-8.68354 -10.22c-17.2313,-22.7121 -13.8313,-48.1592 -13.8384,-73.212 -0.00354286,-13.4723 -0.00944762,-26.9434 -0.00944762,-40.4146l0.0141714 -793.007c0.0129905,-10.9994 -0.883352,-29.0821 1.01208,-38.1223l3.25825 -16.022c1.05695,-3.27832 1.62145,-3.65859 2.53196,-7.1117 2.97482,-11.2805 18.1701,-34.9869 27.2824,-40.0178 4.21246,-2.3253 8.3576,-5.70164 11.7611,-7.3101 3.7507,-0.233829 5.09581,-0.658971 7.51794,-2.35246l1.85055 -1.28488c0.230286,-0.127543 0.493638,-0.256267 0.734552,-0.373181 18.313,-8.89139 32.1396,-7.49314 50.9959,-5.11589 5.76777,0.726286 8.20171,2.41505 14.6828,4.2597 9.86213,2.80949 19.8376,11.9382 26.7521,16.929l1.26716 0.797143c0.168876,0.119276 0.447581,0.253905 0.60819,0.379086 6.8507,5.32373 -3.27714,-5.16667 1.88362,2.02888l8.43554 11.5733c0.133448,0.179505 0.312952,0.438133 0.442857,0.621181l4.7368 7.7317c2.26152,3.52278 1.35691,3.47672 5.96735,4.39078 13.9577,2.76933 32.3262,-4.66358 66.503,5.5552 8.53474,2.55322 19.0192,7.00187 26.6151,11.3112 15.3689,8.71779 28.1763,20.31 40.5185,34.0457 1.94149,2.16114 4.47345,5.46309 7.18373,9.2563 -10.5542,8.16274 -17.2289,20.1305 -17.2289,33.4446l0 25.087z"/>
  <path class="fil0 str0" d="M846.296 1444.42c-6.53421,-10.2637 -16.4932,-19.5318 -25.8121,-24.3749 -9.72632,-5.05448 -16.5865,-5.73707 -24.4209,-8.65756 -5.2765,-1.96747 -16.1672,-2.57566 -21.3646,-12.6008 -3.90659,-7.53211 -2.63943,-19.3499 3.23581,-27.2021 10.8778,-14.5375 25.0279,-6.34998 39.0057,-2.16941l15.8685 6.44564 9.67554 6.73261c0.0354286,0.0283429 1.6061,1.33684 1.68758,1.40415l2.12453 1.61318 0 58.8091z"/>
  <path class="fil0 str0" d="M846.296 1708.34c-3.35863,0.0188952 -6.45627,-0.131086 -9.03074,-0.501905 -13.5668,-1.96038 -24.6536,-18.326 -19.0795,-35.895 3.78141,-11.917 15.7551,-12.1378 28.1102,-11.9158l0 48.3128z"/>
  <path class="fil1" d="M986.068 1118.7l40.3154 0 0 -53.0165c0,-10.2766 4.44865,-19.5022 11.6147,-26.079 6.65585,-6.10907 15.6866,-9.90465 25.4755,-9.90465l171.597 0c9.78891,0 18.8197,3.79558 25.4755,9.90465 7.16602,6.57672 11.6147,15.8023 11.6147,26.079l0 53.0165 32.6179 0c24.1292,0 46.1953,9.17836 62.3035,23.9651 16.6172,15.2508 26.9316,36.4406 26.9316,59.8814l0 648.167c0,23.4407 -10.3156,44.6306 -26.9316,59.8814 -16.1094,14.7867 -38.1743,23.9651 -62.3035,23.9651l-318.711 0c-24.1292,0 -46.1941,-9.17836 -62.3035,-23.9651 -16.616,-15.2508 -26.9316,-36.4406 -26.9316,-59.8814l0 -648.167c0,-23.4407 10.3144,-44.6306 26.9316,-59.8814 16.1082,-14.7867 38.1743,-23.9651 62.3035,-23.9651zm318.711 47.2381l-318.711 0c-11.9595,0 -22.7062,4.37425 -30.38,11.4186 -7.16838,6.5779 -11.617,15.5059 -11.617,25.1897l0 648.167c0,9.68381 4.44983,18.6118 11.617,25.1897 7.67501,7.04556 18.4205,11.4186 30.38,11.4186l318.711 0c11.9595,0 22.705,-4.37307 30.38,-11.4186 7.1672,-6.5779 11.617,-15.5059 11.617,-25.1897l0 -648.167c0,-9.68381 -4.44865,-18.6118 -11.617,-25.1897 -7.67383,-7.04438 -18.4205,-11.4186 -30.38,-11.4186zm-79.856 -89.0001l-151.301 0 0 37.5519 151.301 0 0 -37.5519z"/>
  <rect class="fil2" x="974.901" y="1654.88" width="342.493" height="202.284" rx="29.499" ry="29.499"/>
  <rect class="fil2" x="974.901" y="1429.07" width="342.493" height="202.284" rx="29.499" ry="29.499"/>
  <rect class="fil2" x="974.901" y="1203.26" width="342.493" height="202.284" rx="29.499" ry="29.499"/>
 </g>
</svg>
