<svg width="25" height="25" viewBox="0 0 49 49" fill="none" xmlns="http://www.w3.org/2000/svg">
<path fill-rule="evenodd" clip-rule="evenodd" d="M18.2136 45.7831L17.0739 38.6052C16.3532 38.3398 15.5931 37.9786 14.796 37.5226C13.9981 37.0673 13.2959 36.5927 12.6879 36.0989L5.96601 39.1747L0.668701 29.8332L6.82098 25.3329C6.74458 24.9911 6.69757 24.6022 6.67828 24.1654C6.65976 23.7295 6.64973 23.3397 6.64973 22.9979C6.64973 22.656 6.65976 22.2672 6.67828 21.8304C6.69757 21.3936 6.74458 21.004 6.82098 20.6621L0.668701 16.1627L5.96601 6.82033L12.6879 9.8969C13.2959 9.40305 13.9981 8.92847 14.796 8.47243C15.5931 8.01639 16.3532 7.67535 17.0739 7.44693L18.2136 0.212769H28.6941L29.8338 7.38983C30.5545 7.65604 31.3239 8.00713 32.1403 8.44388C32.9567 8.88063 33.6496 9.36444 34.2191 9.8961L40.9409 6.82033L46.239 16.1627L40.0867 20.7192H36.612C36.5742 20.4538 36.5363 20.1976 36.4978 19.9507C36.4599 19.7037 36.4028 19.4476 36.3272 19.1813L41.6817 15.2506L39.403 11.1492L33.3649 13.7697C32.4914 12.7828 31.5044 11.9564 30.4033 11.292C29.3014 10.6276 28.0869 10.2001 26.7573 10.0103L25.9602 3.63033H20.9475L20.1497 10.0103C18.8595 10.2765 17.6535 10.7318 16.533 11.3777C15.4126 12.0235 14.4164 12.8206 13.5421 13.7697L7.50398 11.1492L5.22606 15.2506L10.5806 19.1813C10.4285 19.8272 10.3051 20.4631 10.2101 21.0897C10.1152 21.7162 10.0674 22.3528 10.0674 22.9979C10.0674 23.643 10.1152 24.2796 10.2101 24.9062C10.3051 25.532 10.4285 26.1686 10.5806 26.8145L5.22606 30.7444L7.50398 34.8457L13.5421 32.2252C14.5298 33.2129 15.6595 34.0386 16.9319 34.703C18.2036 35.3674 19.5424 35.852 20.9476 36.156V45.7831H18.2136Z" fill="#666666"/>
<path fill-rule="evenodd" clip-rule="evenodd" d="M23.454 15.5889C21.4029 15.5889 19.6559 16.3105 18.2129 17.7534C16.7699 19.1972 16.0485 20.9434 16.0485 22.9944C16.0485 24.6265 16.5037 26.0702 17.4158 27.3226C18.3271 28.5765 19.5039 29.4686 20.9469 30.0002V26.1265C20.5294 25.7847 20.1783 25.3202 19.8936 24.7314C19.6081 24.1426 19.4661 23.5639 19.4661 22.9944C19.4661 21.8925 19.8558 20.9527 20.6344 20.1748C21.4122 19.3962 22.3521 19.0074 23.454 19.0074C24.1376 19.0074 24.7635 19.1586 25.3329 19.4626C25.9024 19.7667 26.3584 20.1841 26.7003 20.7158H30.4597C29.9658 19.235 29.0831 18.0096 27.8106 17.042C26.539 16.0735 25.086 15.5889 23.454 15.5889Z" fill="#666666"/>
<path fill-rule="evenodd" clip-rule="evenodd" d="M29.3019 48.0569C28.3521 48.0569 27.5449 47.7251 26.8805 47.06C26.2161 46.3956 25.8843 45.5884 25.8843 44.6393V28.6894C25.8843 27.7402 26.2161 26.9331 26.8805 26.2687C27.5449 25.6043 28.3521 25.2717 29.3019 25.2717H45.2511C46.2002 25.2717 47.0074 25.6043 47.6718 26.2687C48.3361 26.9331 48.6687 27.7402 48.6687 28.6894V44.6393C48.6687 45.5884 48.3361 46.3956 47.6718 47.06C47.0074 47.7251 46.2002 48.0569 45.2511 48.0569H29.3019ZM44.1399 40.4238L41.3203 43.2434L37.5609 39.4839L33.8022 43.2426L30.9826 40.4238L34.7412 36.6643L30.9818 32.9049L33.8014 30.0853L37.5609 33.8447L41.3203 30.0853L44.1407 32.9049L40.3812 36.6643L44.1399 40.4238Z" fill="#FF0000"/>
</svg>
