<svg width="24" height="24" viewBox="0 0 49 49" fill="none" xmlns="http://www.w3.org/2000/svg">
<path fill-rule="evenodd" clip-rule="evenodd" d="M18.3056 46.0319L17.1663 38.8544C16.4451 38.5887 15.6855 38.2278 14.8881 37.7718C14.0906 37.3163 13.3879 36.8418 12.7803 36.3479L6.05841 39.424L0.760864 30.082L6.9131 25.5819C6.83688 25.2401 6.78953 24.8508 6.77058 24.4142C6.75164 23.978 6.74219 23.5887 6.74219 23.2469C6.74219 22.905 6.75164 22.5157 6.77058 22.0791C6.78953 21.6425 6.83689 21.2532 6.9131 20.9113L0.760864 16.4113L6.05841 7.06925L12.7803 10.1454C13.3879 9.6515 14.0906 9.177 14.8881 8.72143C15.6855 8.26544 16.4451 7.92396 17.1663 7.69574L18.3056 0.461426H28.7866L29.9259 7.63891C30.6472 7.90458 31.4162 8.25593 32.2326 8.69255C33.0494 9.1296 33.7422 9.61357 34.3119 10.1453L41.0338 7.06925L46.3313 16.4112L40.1792 20.9682H36.7043C36.6664 20.7025 36.6285 20.4463 36.5906 20.1992C36.5527 19.9524 36.4955 19.6962 36.4197 19.4301L41.774 15.4997L39.4958 11.3983L33.4576 14.0189C32.5839 13.0316 31.5966 12.2053 30.4956 11.5409C29.3941 10.8765 28.1791 10.4493 26.8498 10.259L26.0524 3.87943H21.0399L20.2424 10.259C18.9515 10.5251 17.7455 10.9807 16.6255 11.6266C15.5051 12.272 14.5083 13.0695 13.6346 14.0189L7.59648 11.3983L5.31824 15.4997L10.6726 19.4301C10.5206 20.076 10.3974 20.712 10.3023 21.3385C10.2075 21.965 10.1597 22.6014 10.1597 23.2469C10.1597 23.8923 10.2075 24.5283 10.3023 25.1548C10.3974 25.7813 10.5206 26.4173 10.6726 27.0632L5.31824 30.9936L7.59648 35.0949L13.6346 32.4743C14.622 33.4617 15.7518 34.288 17.0242 34.9524C18.2962 35.6168 19.6349 36.1012 21.0399 36.4048V46.0319H18.3056Z" fill="#666"/>
<path fill-rule="evenodd" clip-rule="evenodd" d="M23.5451 15.8384C21.4942 15.8384 19.7477 16.56 18.3044 18.0029C16.8615 19.4463 16.1398 21.1928 16.1398 23.2437C16.1398 24.876 16.5954 26.3193 17.5069 27.5723C18.4185 28.8258 19.5957 29.718 21.0386 30.2498V26.3762C20.621 26.0343 20.2696 25.5693 19.985 24.9807C19.6999 24.3921 19.5578 23.8133 19.5578 23.2437C19.5578 22.1422 19.9471 21.2023 20.7256 20.4242C21.5037 19.6457 22.4437 19.2564 23.5451 19.2564C24.2289 19.2564 24.8549 19.408 25.4246 19.712C25.9943 20.016 26.4498 20.4337 26.7917 20.965H30.5512C30.0573 19.4842 29.1746 18.2592 27.9022 17.2912C26.6303 16.3228 25.1775 15.8384 23.5451 15.8384Z" fill="#666"/>
<path fill-rule="evenodd" clip-rule="evenodd" d="M29.3935 48.307C28.4441 48.307 27.6371 47.975 26.9727 47.3102C26.3079 46.6458 25.9759 45.8389 25.9759 44.8894V28.9396C25.9759 27.9901 26.3079 27.1832 26.9727 26.5188C27.6371 25.854 28.4441 25.522 29.3935 25.522H45.3433C46.2923 25.522 47.0997 25.854 47.7641 26.5188C48.4285 27.1832 48.7609 27.9901 48.7609 28.9396V44.8894C48.7609 45.8389 48.4285 46.6458 47.7641 47.3102C47.0997 47.975 46.2923 48.307 45.3433 48.307H29.3935ZM44.232 40.6736L41.4125 43.4935L37.653 39.734L33.894 43.493L31.0745 40.6736L34.8331 36.9145L31.0741 33.1551L33.8935 30.3356L37.653 34.0946L41.4125 30.3351L44.2324 33.1546L40.473 36.9145L44.232 40.6736Z" fill="red"/>
</svg>
